<svg width="512" height="512" viewBox="0 0 512 512" fill="none" xmlns="http://www.w3.org/2000/svg">
<rect width="512" height="512" fill="url(#paint0_linear_1_2)"/>
<g style="mix-blend-mode:soft-light" filter="url(#filter0_d_1_2)">
<path d="M405 255.75C405 338.179 338.179 405 255.75 405C173.321 405 106.5 338.179 106.5 255.75C106.5 173.321 173.321 106.5 255.75 106.5C338.179 106.5 405 173.321 405 255.75ZM319.752 234.488C322.724 214.629 307.601 203.952 286.923 196.831L293.631 169.928L277.254 165.847L270.724 192.041C266.418 190.968 261.996 189.956 257.602 188.953L264.18 162.588L247.811 158.507L241.099 185.4C237.535 184.588 234.037 183.786 230.642 182.942L230.66 182.858L208.074 177.219L203.718 194.709C203.718 194.709 215.869 197.493 215.613 197.665C222.246 199.321 223.445 203.71 223.244 207.189L215.603 237.836C216.06 237.953 216.653 238.121 217.305 238.382C216.76 238.247 216.176 238.098 215.575 237.953L204.865 280.885C204.053 282.9 201.996 285.923 197.36 284.776C197.523 285.013 185.456 281.804 185.456 281.804L177.325 300.549L198.638 305.861C202.603 306.855 206.488 307.895 210.313 308.874L203.535 336.084L219.894 340.165L226.606 313.244C230.944 314.419 235.295 315.548 239.657 316.63L232.968 343.425L249.345 347.506L256.123 320.347C284.05 325.631 305.05 323.5 313.889 298.244C321.012 277.909 313.534 266.179 298.841 258.53C309.541 256.064 317.602 249.026 319.752 234.488ZM282.333 286.953C277.272 307.289 243.03 296.295 231.928 293.539L240.922 257.491C252.023 260.261 287.623 265.746 282.333 286.953ZM287.399 234.194C282.781 252.692 254.28 243.294 245.035 240.99L253.189 208.295C262.434 210.599 292.208 214.899 287.399 234.194Z" fill="#F5F5F5"/>
</g>
<defs>
<filter id="filter0_d_1_2" x="102.5" y="106.5" width="306.5" height="327.5" filterUnits="userSpaceOnUse" color-interpolation-filters="sRGB">
<feFlood flood-opacity="0" result="BackgroundImageFix"/>
<feColorMatrix in="SourceAlpha" type="matrix" values="0 0 0 0 0 0 0 0 0 0 0 0 0 0 0 0 0 0 127 0" result="hardAlpha"/>
<feOffset dy="25"/>
<feGaussianBlur stdDeviation="2"/>
<feComposite in2="hardAlpha" operator="out"/>
<feColorMatrix type="matrix" values="0 0 0 0 0 0 0 0 0 0 0 0 0 0 0 0 0 0 0.25 0"/>
<feBlend mode="normal" in2="BackgroundImageFix" result="effect1_dropShadow_1_2"/>
<feBlend mode="normal" in="SourceGraphic" in2="effect1_dropShadow_1_2" result="shape"/>
</filter>
<linearGradient id="paint0_linear_1_2" x1="0" y1="0" x2="512" y2="512" gradientUnits="userSpaceOnUse">
<stop stop-color="#FF9900"/>
<stop offset="0.0001" stop-color="#FD9802"/>
<stop offset="1" stop-color="#A9155C"/>
</linearGradient>
</defs>
</svg>
